<svg   id="chart"   width="1000"   height="500"   viewBox="0 0 1000 500"   xmlns="http://www.w3.org/2000/svg" >      <path d="M 0,492.9013230967088 C 18.200000000000003,487.32960285282354 54.6,478.62391898395816 91,465.0427218772825 C 127.4,451.4615247706068 145.6,434.9220479178243 182,424.9953375633303 C 218.4,415.0686272088363 236.6,427.8303796010167 273,415.4091701048126 C 309.4,402.98796060860843 327.6,388.8804419093266 364,362.8892900823095 C 400.4,336.89813825529245 418.6,296.9791233049904 455,285.4534109697272 C 491.4,273.927698634464 509.6,295.9884020113976 546,305.2607284059935 C 582.4,314.5330548005894 600.6,349.4198316914777 637,331.81504294270667 C 673.4,314.2102541939356 691.6,234.21385661321705 728,217.2367846621383 C 764.4,200.25971271105954 782.6,277.7884099524931 819,246.9296831873129 C 855.4,216.07095642213267 873.6,83.89420059957415 910,62.94315083623712 C 946.4,41.992101072900105 982.8,126.32817766374967 1001,142.1744343706278,L 1000 500,L 0 500Z" fill="#d977061a" />   <path d="M 0,492.9013230967088 C 18.200000000000003,487.32960285282354 54.6,478.62391898395816 91,465.0427218772825 C 127.4,451.4615247706068 145.6,434.9220479178243 182,424.9953375633303 C 218.4,415.0686272088363 236.6,427.8303796010167 273,415.4091701048126 C 309.4,402.98796060860843 327.6,388.8804419093266 364,362.8892900823095 C 400.4,336.89813825529245 418.6,296.9791233049904 455,285.4534109697272 C 491.4,273.927698634464 509.6,295.9884020113976 546,305.2607284059935 C 582.4,314.5330548005894 600.6,349.4198316914777 637,331.81504294270667 C 673.4,314.2102541939356 691.6,234.21385661321705 728,217.2367846621383 C 764.4,200.25971271105954 782.6,277.7884099524931 819,246.9296831873129 C 855.4,216.07095642213267 873.6,83.89420059957415 910,62.94315083623712 C 946.4,41.992101072900105 982.8,126.32817766374967 1001,142.1744343706278" fill="none" stroke="#d97706" stroke-width="4px" />   <g>   		<circle cx="0" cy="492.9013230967088" r="8" fill="#d97706" />,		<circle cx="91" cy="465.0427218772825" r="8" fill="#d97706" />,		<circle cx="182" cy="424.9953375633303" r="8" fill="#d97706" />,		<circle cx="273" cy="415.4091701048126" r="8" fill="#d97706" />,		<circle cx="364" cy="362.8892900823095" r="8" fill="#d97706" />,		<circle cx="455" cy="285.4534109697272" r="8" fill="#d97706" />,		<circle cx="546" cy="305.2607284059935" r="8" fill="#d97706" />,		<circle cx="637" cy="331.81504294270667" r="8" fill="#d97706" />,		<circle cx="728" cy="217.2367846621383" r="8" fill="#d97706" />,		<circle cx="819" cy="246.9296831873129" r="8" fill="#d97706" />,		<circle cx="910" cy="62.94315083623712" r="8" fill="#d97706" />,		<circle cx="1001" cy="142.1744343706278" r="8" fill="#d97706" />   </g> </svg>